<?xml version="1.0" standalone="no"?>
<!DOCTYPE svg PUBLIC "-//W3C//DTD SVG 20010904//EN"
 "http://www.w3.org/TR/2001/REC-SVG-20010904/DTD/svg10.dtd">
<svg version="1.0" xmlns="http://www.w3.org/2000/svg"
 width="460.000000pt" height="460.000000pt" viewBox="0 0 460.000000 460.000000"
 preserveAspectRatio="xMidYMid meet">
<metadata>
Created by potrace 1.14, written by Peter Selinger 2001-2017
</metadata>
<g transform="translate(0.000000,460.000000) scale(0.100000,-0.100000)"
fill="#000000" stroke="none">
<path d="M0 3494 l0 -1107 73 6 c46 4 65 3 52 -3 -11 -5 -44 -9 -72 -9 l-53
-1 0 -293 c0 -215 3 -296 12 -305 9 -9 9 -12 0 -12 -19 0 -16 -96 3 -104 8 -3
15 -10 15 -15 0 -6 -7 -8 -15 -5 -13 5 -15 -90 -15 -820 l0 -826 2300 0 2300
0 0 2300 0 2300 -2300 0 -2300 0 0 -1106z m1055 36 c0 -18 -6 -26 -23 -28 -24
-4 -38 18 -28 44 3 9 15 14 28 12 17 -2 23 -10 23 -28z m55 -54 c0 -7 -4 -6
-9 2 -6 10 -10 8 -14 -10 -6 -21 -8 -22 -23 -6 -19 19 -11 40 13 31 12 -5 14
-3 8 8 -8 12 -6 12 8 0 9 -7 17 -19 17 -25z m245 14 c0 -8 -14 -17 -32 -21
-34 -7 -38 -3 -27 26 8 20 59 17 59 -5z m475 -59 c0 -13 -9 -17 -52 -25 -24
-4 -38 -3 -38 4 0 5 9 10 19 10 11 0 23 5 26 10 8 13 45 13 45 1z m80 -95 c0
-13 2 -31 6 -39 6 -16 -42 -43 -95 -53 -26 -6 -32 -3 -40 17 -8 22 -5 26 40
43 34 13 49 24 49 37 0 12 7 19 20 19 14 0 20 -7 20 -24z m-196 -22 c9 -3 16
-12 16 -20 0 -21 -38 -17 -50 6 -11 21 1 27 34 14z m-384 -29 c0 -16 -35 -21
-44 -6 -8 12 4 21 26 21 10 0 18 -7 18 -15z m-60 -15 c0 -5 -7 -10 -15 -10 -8
0 -15 5 -15 10 0 6 7 10 15 10 8 0 15 -4 15 -10z m1336 -21 c95 -13 275 -59
367 -93 77 -30 97 -32 97 -12 0 18 38 46 62 46 13 0 21 -10 25 -30 3 -18 20
-43 41 -60 30 -24 38 -27 59 -17 17 8 27 7 35 -1 18 -18 25 -15 32 13 9 34 25
31 72 -11 36 -34 140 -117 253 -204 76 -59 93 -73 133 -112 89 -87 16 -42
-218 134 -94 70 -180 128 -191 128 -31 0 -93 -29 -93 -43 0 -6 17 -23 38 -37
42 -28 114 -82 122 -91 3 -3 23 -17 45 -31 47 -30 262 -242 320 -316 22 -28
46 -51 53 -52 21 0 13 -27 -13 -44 -36 -24 -21 -40 30 -33 37 5 45 3 69 -21
14 -16 26 -35 26 -43 0 -8 5 -20 10 -25 16 -16 50 -87 45 -92 -3 -3 -5 0 -5 6
0 7 -6 12 -14 12 -11 0 -172 112 -371 260 -27 20 -104 77 -170 125 -66 49
-140 105 -165 125 -25 20 -90 72 -145 115 -125 99 -299 248 -345 296 -46 48
-62 56 -142 64 -42 5 -65 11 -61 17 3 6 0 9 -7 6 -32 -10 -13 -31 116 -129
126 -96 422 -327 469 -367 145 -121 232 -186 263 -194 46 -13 112 -64 112 -87
0 -26 10 -32 27 -16 15 16 49 12 90 -9 44 -22 396 -316 379 -316 -6 0 -230
152 -236 160 -10 14 -172 130 -181 130 -19 0 -6 -16 43 -55 29 -22 60 -48 71
-58 10 -10 28 -20 39 -22 26 -5 43 -21 43 -39 0 -11 217 -196 230 -196 3 0 9
15 14 33 8 28 9 22 10 -39 l1 -71 60 -47 c33 -26 60 -51 60 -55 0 -5 -28 -19
-62 -31 -82 -30 -88 -36 -88 -79 0 -27 7 -44 25 -61 37 -35 22 -37 -26 -4 -37
25 -40 31 -36 61 3 18 2 33 -3 33 -5 0 -89 -30 -187 -66 -98 -36 -205 -74
-239 -83 -81 -23 -86 -27 -72 -51 7 -10 15 -17 19 -15 3 3 14 -4 24 -14 26
-29 -4 -21 -48 12 -65 49 -81 27 -17 -24 60 -48 37 -55 -26 -7 -80 60 -88 35
-9 -30 36 -29 65 -58 65 -64 0 -6 -10 -4 -22 5 -13 8 -22 21 -20 27 1 6 -2 9
-8 5 -6 -4 -33 12 -61 34 -50 40 -69 49 -69 33 0 -4 34 -36 75 -71 41 -35 75
-68 75 -73 0 -5 4 -7 9 -3 6 3 20 -8 32 -24 12 -17 26 -28 30 -25 4 2 10 0 13
-5 4 -5 -1 -8 -9 -7 -27 4 -166 117 -159 128 4 7 2 8 -4 4 -7 -4 -28 5 -48 21
-20 15 -45 28 -56 30 -11 2 24 -33 76 -78 53 -45 96 -85 96 -90 0 -5 5 -8 11
-7 6 2 13 -5 14 -14 2 -12 -34 10 -101 62 -57 44 -104 75 -104 71 0 -5 36 -39
80 -76 44 -37 78 -71 75 -76 -6 -8 -151 93 -167 116 -4 5 -10 6 -14 3 -3 -4
10 -21 30 -38 20 -18 33 -36 30 -41 -3 -5 -1 -8 5 -7 14 4 121 -84 115 -94 -3
-4 -50 26 -105 67 -101 77 -136 84 -53 11 l46 -41 -13 -70 c-10 -52 -15 -63
-19 -45 -5 21 -7 18 -13 -19 -4 -24 -10 -42 -12 -39 -3 2 2 40 9 84 16 88 12
98 -53 137 -40 23 -40 14 0 -22 l30 -28 -18 -99 c-14 -80 -19 -93 -24 -69 -6
26 -7 27 -8 6 0 -13 -3 -22 -6 -19 -3 3 0 44 7 92 11 81 11 87 -7 100 -23 16
-41 10 -26 -8 8 -9 6 -38 -6 -97 -13 -66 -18 -79 -24 -59 l-7 25 -2 -25 c-1
-14 -4 -19 -7 -12 -3 7 0 42 6 78 11 63 11 66 -11 84 -27 21 -46 15 -25 -8 12
-15 11 -30 -6 -112 -16 -75 -22 -90 -28 -70 l-7 25 -2 -25 c-1 -14 -4 -19 -7
-12 -3 7 0 42 6 78 8 42 8 71 2 82 -12 21 -11 23 -42 -105 -13 -51 -26 -88
-30 -82 -5 8 -9 5 -12 -7 -6 -20 -2 26 9 109 5 41 4 46 -10 41 -9 -3 -16 -11
-16 -17 0 -6 -9 -45 -21 -87 -14 -53 -25 -77 -36 -77 -11 0 -13 7 -9 27 13 68
18 130 10 130 -9 0 -31 -66 -49 -141 -8 -31 -35 -35 -34 -5 0 12 4 45 8 74 12
85 -12 60 -41 -43 -8 -30 -20 -50 -28 -50 -8 0 -14 5 -14 10 13 93 14 125 5
125 -9 0 -15 -17 -40 -108 -7 -25 -18 -42 -27 -42 -12 0 -14 12 -9 68 4 51 3
61 -5 43 -6 -13 -8 -26 -6 -29 3 -3 -3 -17 -13 -31 -10 -14 -16 -31 -14 -38 7
-20 -19 -27 -33 -8 -12 16 -16 16 -36 3 -13 -8 -50 -22 -83 -32 -33 -10 -79
-24 -103 -32 -23 -8 -47 -14 -52 -14 -5 0 -21 -5 -37 -12 -34 -14 -60 -12
-141 9 -49 13 -65 14 -71 4 -6 -9 -11 -8 -20 3 -8 10 -23 13 -47 9 -19 -3 -40
-1 -48 6 -8 6 -37 14 -65 18 -54 6 -60 23 -8 23 18 0 102 -14 187 -31 85 -16
164 -28 175 -26 26 6 243 97 231 97 -5 0 -63 -17 -128 -37 -132 -41 -125 -41
-348 2 -118 23 -151 24 -201 7 -32 -11 -48 -11 -61 -3 -10 6 -22 11 -26 11
-15 0 -62 -45 -62 -59 0 -8 -3 -11 -7 -7 -5 4 -8 13 -8 19 0 20 -30 18 -58 -3
-33 -26 -34 -54 -6 -121 24 -55 96 -120 155 -139 25 -9 33 -15 25 -23 -7 -7
-22 -2 -49 16 -21 15 -42 27 -46 27 -5 0 -26 14 -49 32 -50 40 -97 113 -97
151 0 29 0 29 -47 23 -45 -6 -50 -4 -86 30 -31 29 -37 42 -32 61 5 22 4 23
-15 13 -16 -9 -22 -8 -26 5 -3 8 -13 15 -21 15 -9 0 -13 -6 -10 -15 4 -8 0
-26 -8 -41 -13 -26 -13 -26 -25 -5 -6 12 -14 20 -18 17 -4 -2 -17 0 -30 5 -17
6 -22 15 -20 31 2 17 -2 23 -15 23 -25 0 -127 86 -127 107 0 9 -4 20 -10 23
-17 11 -11 25 16 36 30 11 44 5 27 -12 -9 -9 -8 -17 0 -32 16 -27 57 -68 57
-57 0 5 14 17 30 25 37 19 31 35 -13 36 l-32 0 23 16 c32 22 28 37 -9 29 -25
-5 -32 -2 -36 13 -5 18 -7 18 -60 3 l-54 -15 -27 27 c-23 22 -25 28 -12 36 24
16 53 12 46 -5 -8 -22 19 -30 54 -15 37 15 39 33 3 28 -36 -4 -40 17 -6 31
l28 11 -30 -6 c-16 -3 -32 -6 -36 -7 -9 -3 -109 83 -109 93 0 6 17 17 37 26
29 13 34 18 20 21 -25 6 -57 34 -57 49 0 7 13 15 29 19 16 3 32 12 34 19 4 9
-17 7 -74 -9 -79 -23 -79 -23 -104 -3 -33 26 -31 43 7 59 52 22 14 21 -51 -1
-33 -11 -70 -20 -82 -20 -12 0 -57 34 -112 85 -84 78 -138 109 -124 71 6 -15
-29 -33 -40 -22 -4 3 1 6 10 6 21 0 22 13 3 29 -10 8 -16 9 -21 1 -3 -6 -11
-8 -16 -4 -6 4 -6 10 0 18 8 9 4 19 -14 36 -19 18 -22 26 -14 37 6 7 19 13 28
12 10 0 8 -3 -7 -10 -27 -10 -24 -18 26 -57 30 -24 42 -28 61 -21 19 8 21 12
11 24 -7 8 -22 15 -34 16 -11 0 -15 3 -8 6 6 2 9 10 6 16 -4 7 9 -3 29 -22 36
-34 36 -34 81 -21 26 7 46 18 46 25 0 7 7 18 15 25 12 10 15 9 15 -4 0 -11 -5
-14 -12 -10 -6 4 -8 3 -5 -4 7 -11 44 -5 63 9 7 6 21 2 36 -10 28 -23 161 -40
172 -23 4 7 -11 15 -36 21 -37 9 -38 10 -9 7 l34 -3 -44 38 c-50 44 -63 48
-54 18 6 -17 3 -20 -12 -17 -10 2 -17 10 -15 17 2 9 -3 11 -15 7 -10 -4 -31
-9 -48 -12 -20 -3 -13 2 20 14 28 10 50 25 50 33 0 17 -98 41 -140 34 -25 -4
-27 -3 -11 6 11 7 37 9 64 5 35 -5 43 -3 35 5 -7 7 -35 13 -62 13 -27 1 -53 5
-58 10 -4 4 13 7 40 5 26 -3 47 -1 47 3 0 5 -4 8 -9 8 -5 0 -26 17 -47 38 -46
45 -333 306 -378 343 -17 14 -38 29 -46 32 -11 4 -10 6 5 6 12 1 59 -34 115
-85 52 -47 147 -129 210 -182 63 -53 121 -102 128 -109 7 -7 28 -13 45 -12 27
0 29 2 12 9 -11 5 -15 9 -10 10 6 1 1 5 -10 10 -17 7 -17 9 -2 9 9 1 17 6 17
11 0 6 12 10 26 10 14 0 32 6 39 14 12 12 2 25 -68 92 -81 77 -116 117 -87 99
8 -5 4 5 -8 22 -31 44 -153 154 -163 147 -13 -7 -111 78 -101 88 4 4 33 16 65
27 49 17 60 18 82 7 24 -13 25 -14 5 -19 -28 -7 -25 -25 4 -20 29 6 46 -17 23
-31 -15 -9 -14 -13 10 -38 41 -42 19 -45 -29 -4 -23 20 -44 32 -46 27 -2 -6 9
-22 25 -35 15 -13 105 -89 198 -170 94 -80 178 -146 188 -146 9 0 17 -4 17 -9
0 -12 44 -61 55 -61 15 0 94 -65 95 -77 0 -6 16 -17 35 -24 19 -7 35 -19 35
-27 0 -7 13 -18 30 -23 16 -6 27 -15 24 -20 -3 -5 1 -9 8 -9 7 0 19 -9 26 -20
7 -11 19 -20 28 -20 8 0 12 -4 9 -10 -3 -5 1 -10 9 -10 9 0 16 -8 16 -19 0
-23 16 -36 53 -45 15 -4 25 -10 23 -15 -3 -5 8 -14 24 -21 17 -7 30 -17 30
-22 0 -12 26 -38 38 -38 5 0 14 -11 20 -25 6 -14 17 -25 23 -25 7 0 30 -18 51
-40 22 -22 46 -40 54 -40 18 0 54 -31 48 -42 -8 -13 28 -45 59 -52 19 -4 27
-12 24 -21 -6 -14 26 -40 58 -47 11 -2 19 -10 17 -16 -1 -7 9 -17 23 -22 14
-5 29 -18 32 -27 10 -26 74 -81 102 -88 13 -3 44 -22 69 -41 25 -18 50 -34 56
-35 52 -4 92 3 161 26 44 16 90 29 102 31 33 3 63 15 63 23 0 4 19 13 43 20
23 7 52 17 65 22 13 5 34 9 47 9 14 0 25 4 25 10 0 8 38 23 62 25 3 0 10 3 14
8 4 4 16 7 26 7 10 0 26 4 36 9 29 15 65 29 107 42 22 7 44 17 50 21 5 4 17 8
27 8 10 0 26 4 36 9 9 5 37 15 62 22 25 7 50 16 55 19 10 7 62 23 80 25 6 0
19 6 29 12 10 6 27 8 37 6 11 -3 19 0 19 6 0 6 11 11 25 11 14 0 25 5 25 11 0
7 9 9 23 6 12 -3 30 0 40 8 11 7 25 11 32 9 7 -3 16 -1 20 5 3 6 19 11 36 11
16 0 29 5 29 10 0 6 14 10 31 10 17 0 28 4 24 10 -4 6 8 10 30 10 22 0 41 7
51 19 9 10 24 17 33 14 9 -2 27 0 41 6 22 8 22 10 5 11 l-20 1 20 9 c11 5 35
9 53 9 22 1 32 6 32 17 0 12 7 14 28 9 39 -8 278 78 311 113 15 15 26 21 29
14 5 -17 30 -14 76 6 l39 18 -51 38 c-29 21 -56 45 -61 54 -9 15 -21 13 -123
-22 -407 -139 -716 -252 -711 -259 3 -5 -4 -6 -17 -2 -15 5 -20 3 -16 -3 8
-13 -29 -26 -45 -16 -7 4 -9 3 -6 -3 9 -14 -637 -240 -952 -333 -138 -41 -182
-24 -362 141 -45 41 -92 80 -105 87 -13 7 -28 21 -34 32 -6 11 -17 20 -25 20
-8 0 -14 5 -13 12 2 7 -2 12 -9 13 -7 0 -19 9 -27 20 -8 11 -20 20 -28 20 -7
0 -13 6 -13 12 0 12 -38 45 -46 40 -2 -1 -3 0 -2 2 6 9 -20 30 -30 24 -6 -3
-7 -1 -3 5 6 11 -27 36 -36 27 -3 -3 -13 5 -24 17 l-19 23 25 -19 c14 -11 8
-2 -13 18 -21 20 -41 34 -46 32 -5 -3 -17 4 -27 17 l-19 22 25 -20 c21 -16 20
-14 -4 13 -29 31 -54 44 -40 20 4 -7 -2 -5 -14 6 -12 10 -20 22 -17 26 2 4 -7
17 -20 28 -28 25 -40 28 -29 10 5 -10 3 -10 -7 0 -8 7 -14 18 -14 25 -1 7 -7
10 -15 9 -8 -2 -12 0 -8 4 9 8 -10 34 -24 34 -5 0 -6 -6 -2 -12 4 -7 -5 -2
-19 11 -15 14 -25 27 -22 29 6 7 -25 42 -37 42 -5 0 -6 -6 -2 -12 4 -8 3 -10
-2 -5 -5 5 -9 14 -9 20 -1 7 -6 11 -13 9 -7 -1 -11 2 -10 7 3 8 -90 92 -372
336 -136 118 -144 126 -127 140 7 6 23 24 35 41 18 26 40 38 134 69 118 39
165 59 116 50 -88 -16 -86 -16 -47 5 24 12 48 38 68 75 17 30 34 55 37 55 11
0 -4 -110 -16 -126 -11 -12 -6 -12 31 0 24 7 195 59 379 115 184 56 434 133
555 171 121 38 290 89 375 115 168 49 240 76 240 88 0 10 45 9 136 -4z m-1191
-85 l0 -48 -50 -13 c-59 -15 -81 -10 -89 20 -7 26 -2 31 45 46 22 7 41 21 47
37 10 19 16 23 29 15 13 -7 18 -22 18 -57z m1861 39 c18 -16 34 -36 34 -45 0
-26 -38 -33 -63 -11 -12 11 -37 26 -54 33 -37 14 -41 24 -15 39 29 18 62 12
98 -16z m-2062 -28 c19 -14 14 -35 -8 -35 -18 0 -39 27 -31 40 8 13 16 12 39
-5z m631 5 c-3 -5 -12 -10 -18 -10 -7 0 -6 4 3 10 19 12 23 12 15 0z m-38 -17
c-6 -6 -120 -49 -157 -59 -8 -2 -22 0 -30 6 -29 18 13 43 87 50 100 10 107 11
100 3z m-248 -67 c8 -10 9 -16 2 -21 -19 -11 -265 -92 -338 -111 -72 -18 -73
-18 -87 1 -9 11 -14 25 -12 30 5 17 72 44 136 54 35 6 70 17 79 25 33 29 200
46 220 22z m-449 -125 c0 -18 -18 -21 -30 -6 -10 13 -9 15 9 15 11 0 21 -4 21
-9z m-642 -329 c3 -9 -2 -13 -14 -10 -11 2 -24 -3 -31 -12 -11 -13 -12 -13
-13 1 0 34 48 51 58 21z m3746 -181 c11 -16 -27 -22 -43 -6 -14 13 -13 15 11
15 15 0 29 -4 32 -9z m-103 -35 c-15 -18 4 -51 49 -84 16 -13 30 -26 30 -31 0
-13 -54 -34 -58 -22 -2 6 -21 21 -43 33 -39 21 -49 41 -29 53 8 5 7 11 -1 21
-14 17 -5 30 26 37 35 8 38 7 26 -7z m149 -6 c0 -5 -7 -10 -16 -10 -8 0 -12 5
-9 10 3 6 10 10 16 10 5 0 9 -4 9 -10z m13 -104 c4 -9 -2 -17 -13 -21 -25 -8
-41 2 -33 20 7 19 39 19 46 1z m-3523 -86 c0 -5 -5 -10 -11 -10 -5 0 -7 5 -4
10 3 6 8 10 11 10 2 0 4 -4 4 -10z m-350 -252 c0 -6 -6 -5 -15 2 -8 7 -15 14
-15 16 0 2 7 1 15 -2 8 -4 15 -11 15 -16z m-136 -37 c-7 -8 -34 9 -45 30 -12
22 -11 22 18 -2 17 -13 29 -26 27 -28z m181 -1 c16 -16 27 -32 24 -34 -4 -4
-142 -46 -153 -46 -3 0 -5 3 -4 8 3 16 -15 42 -29 42 -12 0 -13 3 -4 14 6 7
21 11 34 9 12 -2 38 5 57 16 45 26 42 26 75 -9z m3645 -66 c0 -14 -3 -14 -15
-4 -8 7 -15 14 -15 16 0 2 7 4 15 4 8 0 15 -7 15 -16z m-3790 -20 c0 -2 -9 -4
-20 -4 -11 0 -20 4 -20 9 0 5 9 7 20 4 11 -3 20 -7 20 -9z m-60 -15 c0 -6 -4
-7 -10 -4 -5 3 -10 11 -10 16 0 6 5 7 10 4 6 -3 10 -11 10 -16z m445 -9 c8
-13 -5 -13 -25 0 -13 8 -13 10 2 10 9 0 20 -4 23 -10z m-555 -20 c0 -5 -2 -10
-4 -10 -3 0 -8 5 -11 10 -3 6 -1 10 4 10 6 0 11 -4 11 -10z m-40 -10 c0 -5 -2
-10 -4 -10 -3 0 -8 5 -11 10 -3 6 -1 10 4 10 6 0 11 -4 11 -10z m230 -41 c0
-6 -4 -7 -10 -4 -5 3 -10 11 -10 16 0 6 5 7 10 4 6 -3 10 -11 10 -16z m-30
-11 c0 -13 -23 -5 -28 10 -2 7 2 10 12 6 9 -3 16 -11 16 -16z m-150 -50 c0
-19 -20 -6 -34 24 l-16 32 25 -24 c14 -13 25 -27 25 -32z m105 42 c3 -5 2 -10
-4 -10 -5 0 -13 5 -16 10 -3 6 -2 10 4 10 5 0 13 -4 16 -10z m-40 -10 c3 -5 1
-10 -4 -10 -6 0 -11 5 -11 10 0 6 2 10 4 10 3 0 8 -4 11 -10z m-28 -30 c1 -11
-3 -20 -8 -20 -6 0 -8 4 -4 9 3 5 1 12 -5 16 -15 9 -12 25 3 19 7 -2 13 -13
14 -24z m101 23 c-10 -2 -18 -9 -18 -15 0 -6 -3 -9 -6 -5 -10 10 6 27 24 26
15 -1 15 -2 0 -6z m-182 -40 c-4 -4 -11 -1 -16 7 -16 25 -11 35 7 17 9 -9 13
-20 9 -24z m-36 -4 c0 -5 -4 -9 -10 -9 -5 0 -10 7 -10 16 0 8 5 12 10 9 6 -3
10 -10 10 -16z m265 1 c-27 -12 -43 -12 -25 0 8 5 22 9 30 9 10 0 8 -3 -5 -9z
m-85 -20 c0 -5 -5 -10 -11 -10 -5 0 -7 5 -4 10 3 6 8 10 11 10 2 0 4 -4 4 -10z
m-40 -20 c-8 -5 -22 -9 -30 -9 -10 0 -8 3 5 9 27 12 43 12 25 0z m464 -129
c24 -27 1 -39 -27 -14 -21 19 -57 21 -57 3 0 -5 11 -17 25 -28 14 -11 25 -23
25 -28 0 -4 -16 7 -35 26 -40 38 -42 47 -17 53 39 10 70 6 86 -12z m2933 -6
c0 -8 -4 -12 -9 -9 -5 3 -6 10 -3 15 9 13 12 11 12 -6z m-2837 -83 c35 -32 61
-63 57 -69 -4 -6 -21 -13 -39 -17 -29 -6 -37 -1 -80 41 -51 51 -63 79 -27 68
18 -6 20 -4 14 14 -10 34 8 25 75 -37z m130 48 c0 -5 -4 -10 -10 -10 -5 0 -10
5 -10 10 0 6 5 10 10 10 6 0 10 -4 10 -10z m2684 -2 c4 4 6 0 4 -8 -1 -8 3
-14 10 -12 14 2 16 -4 3 -12 -4 -3 -19 7 -32 22 -13 14 -17 21 -8 14 9 -6 19
-8 23 -4z m-3224 -19 c0 -6 -4 -7 -10 -4 -5 3 -10 11 -10 16 0 6 5 7 10 4 6
-3 10 -11 10 -16z m3285 -31 c4 -3 2 -9 -3 -12 -5 -3 -15 1 -21 8 -10 11 -9
14 3 12 9 -1 18 -5 21 -8z m-61 -25 c4 -5 12 -8 18 -8 6 0 12 -8 14 -19 2 -16
-1 -15 -24 5 -15 13 -29 25 -31 27 -2 1 0 2 6 2 5 0 13 -3 17 -7z m-2836 -75
c7 -7 12 -16 12 -20 0 -12 -28 -10 -32 2 -2 7 -19 5 -47 -5 -24 -8 -46 -13
-49 -10 -3 2 4 7 14 11 10 3 33 12 49 19 38 17 39 17 53 3z m2883 -35 c13 -16
12 -17 -3 -4 -17 13 -22 21 -14 21 2 0 10 -8 17 -17z m439 14 c0 -2 -112 -46
-250 -97 -137 -51 -247 -97 -244 -101 2 -4 -3 -12 -12 -17 -12 -7 -26 -3 -51
14 -28 19 -39 21 -57 12 -24 -10 -23 -10 18 -47 22 -20 47 -42 55 -49 11 -10
16 -11 21 -1 4 6 20 12 34 12 26 0 26 0 10 18 -21 23 -7 25 18 2 25 -23 24
-53 -2 -46 -11 3 -20 10 -20 17 0 6 -5 3 -11 -6 -5 -10 -15 -18 -20 -18 -6 0
-24 -13 -41 -30 -23 -23 -39 -30 -68 -30 -26 0 -43 -6 -50 -17 -8 -13 -13 -14
-16 -5 -3 6 -11 12 -17 12 -22 1 -82 59 -72 69 16 15 69 26 61 12 -4 -6 -14
-11 -22 -11 -8 0 -14 -7 -14 -15 0 -14 12 -20 34 -16 5 1 15 -8 24 -20 14 -20
16 -20 27 -6 7 10 24 15 41 14 17 -1 29 3 29 10 0 7 7 18 16 25 15 12 15 14
-1 29 -15 14 -22 15 -56 3 -33 -11 -41 -11 -56 2 -15 15 -28 12 -145 -31 -220
-80 -254 -92 -393 -140 -74 -25 -150 -53 -168 -61 -18 -7 -40 -14 -50 -14 -37
1 58 40 333 136 39 14 77 28 85 31 32 13 178 65 235 83 132 44 147 51 134 66
-15 19 -7 26 54 48 45 17 49 17 67 1 20 -18 7 -22 385 113 140 50 155 55 155
49z m-564 -20 c4 -4 0 -7 -9 -7 -9 0 -18 4 -21 9 -7 10 20 9 30 -2z m-2899 -3
c-3 -3 -12 -4 -19 -1 -8 3 -5 6 6 6 11 1 17 -2 13 -5z m196 -14 c7 -6 21 -17
32 -25 l20 -14 -20 -6 c-11 -4 -32 -13 -47 -21 -34 -18 -43 -18 -63 2 -15 16
-14 19 12 44 31 31 48 35 66 20z m1280 0 c6 0 4 -7 -5 -16 -18 -18 -38 -11
-38 13 0 10 6 13 16 9 9 -3 21 -6 27 -6z m-1483 -10 c0 -5 -7 -10 -16 -10 -8
0 -12 5 -9 10 3 6 10 10 16 10 5 0 9 -4 9 -10z m69 -66 c21 -7 0 -24 -46 -41
-52 -18 -58 -17 -72 14 -10 21 -9 28 1 34 12 7 85 3 117 -7z m2478 -116 c-3
-8 -6 -5 -6 6 -1 11 2 17 5 13 3 -3 4 -12 1 -19z m20 -10 c-3 -7 -5 -2 -5 12
0 14 2 19 5 13 2 -7 2 -19 0 -25z m-1989 -50 c-6 -18 -28 -21 -28 -4 0 9 7 16
16 16 9 0 14 -5 12 -12z m2487 -8 c-3 -5 -10 -10 -16 -10 -5 0 -9 5 -9 10 0 6
7 10 16 10 8 0 12 -4 9 -10z m-2312 -30 c24 -28 14 -40 -31 -39 -20 0 -31 3
-24 6 6 2 12 13 12 22 0 35 18 40 43 11z m2227 0 c-24 -15 -37 -11 -16 5 11 8
22 12 25 9 3 -3 -1 -9 -9 -14z m-2500 -34 c0 -20 -19 -31 -32 -18 -6 6 -7 15
-4 21 10 16 36 13 36 -3z m193 -17 c-7 -7 -19 -9 -29 -5 -16 6 -16 8 2 21 22
16 45 2 27 -16z m517 11 c12 -8 9 -10 -12 -10 -16 0 -28 5 -28 10 0 13 20 13
40 0z m1835 0 c-3 -5 -11 -10 -16 -10 -6 0 -7 5 -4 10 3 6 11 10 16 10 6 0 7
-4 4 -10z m165 -41 c0 -14 -5 -11 -31 17 l-24 27 28 -18 c15 -9 27 -21 27 -26z
m-2840 6 c0 -8 -4 -15 -9 -15 -13 0 -22 16 -14 24 11 11 23 6 23 -9z m175 -11
c0 -10 -8 -20 -17 -22 -18 -3 -26 27 -11 42 12 11 28 0 28 -20z m2410 6 c-3
-5 -10 -10 -16 -10 -5 0 -9 5 -9 10 0 6 7 10 16 10 8 0 12 -4 9 -10z m150 -10
c10 -11 14 -20 8 -20 -5 0 -18 9 -28 20 -10 11 -14 20 -8 20 5 0 18 -9 28 -20z
m51 -8 c-9 -9 -37 8 -31 18 5 8 11 7 21 -1 8 -6 12 -14 10 -17z m-1361 8 c3
-5 -1 -10 -9 -10 -9 0 -16 5 -16 10 0 6 4 10 9 10 6 0 13 -4 16 -10z m1705 0
c-8 -5 -19 -10 -25 -10 -5 0 -3 5 5 10 8 5 20 10 25 10 6 0 3 -5 -5 -10z
m-2656 -20 c17 -16 -5 -29 -37 -23 -38 7 -52 17 -43 32 7 11 65 4 80 -9z
m2030 11 c3 -5 -1 -12 -10 -15 -20 -8 -29 -1 -19 13 8 13 22 14 29 2z m-2446
-30 c-5 -24 -38 -27 -38 -3 0 10 3 21 6 25 11 11 35 -5 32 -22z m2587 9 c10
-11 15 -23 12 -27 -8 -7 -47 25 -47 39 0 14 16 9 35 -12z m405 0 c-8 -5 -19
-10 -25 -10 -5 0 -3 5 5 10 8 5 20 10 25 10 6 0 3 -5 -5 -10z m-1472 -56 c13
-13 27 -24 32 -24 16 0 11 -17 -6 -24 -11 -4 -18 1 -21 14 -4 13 -17 23 -35
27 -31 6 -43 17 -33 33 8 13 36 1 63 -26z m978 10 c-9 -8 -20 -12 -26 -9 -15
9 -2 25 21 25 19 0 19 -1 5 -16z m-1071 -14 c3 -6 -1 -13 -10 -16 -19 -8 -30
0 -20 15 8 14 22 14 30 1z m915 -10 c0 -5 -2 -10 -4 -10 -3 0 -8 5 -11 10 -3
6 -1 10 4 10 6 0 11 -4 11 -10z m-1347 -17 c82 -42 74 -114 -14 -129 l-34 -5
27 17 c52 35 43 76 -21 95 -87 26 -134 -30 -70 -83 35 -29 28 -36 -16 -16 -32
14 -67 70 -59 92 17 44 126 61 187 29z m1777 6 c-14 -5 -30 -17 -37 -25 -7 -9
-13 -11 -17 -5 -7 11 40 40 64 40 8 0 4 -5 -10 -10z m-1430 -19 c0 -6 11 -15
25 -20 29 -11 32 -25 9 -34 -9 -4 -17 -5 -18 -4 -8 21 -26 43 -35 44 -21 3
-22 4 -16 14 8 13 35 13 35 0z m990 -10 c0 -5 -7 -10 -15 -10 -8 0 -15 5 -15
10 0 6 7 10 15 10 8 0 15 -4 15 -10z m-1155 -175 c0 -5 -22 -11 -50 -11 -27
-1 -38 0 -22 3 15 2 27 9 27 14 0 6 10 9 23 7 12 -2 22 -7 22 -13z m-827 -14
c21 -13 11 -55 -15 -59 -30 -4 -49 31 -27 52 18 18 24 19 42 7z m1032 -71 c0
-5 -4 -10 -10 -10 -5 0 -10 5 -10 10 0 6 5 10 10 10 6 0 10 -4 10 -10z m-85
-30 c-3 -5 -10 -10 -16 -10 -5 0 -9 5 -9 10 0 6 7 10 16 10 8 0 12 -4 9 -10z
m52 -57 c-9 -9 -19 -14 -23 -11 -10 10 6 28 24 28 15 0 15 -1 -1 -17z m-157
-63 c0 -5 -7 -10 -15 -10 -8 0 -15 5 -15 10 0 6 7 10 15 10 8 0 15 -4 15 -10z
m-638 -29 c18 -15 43 -33 56 -40 29 -15 28 -37 -2 -57 -39 -25 -70 -15 -74 22
-3 26 -8 33 -33 38 -37 7 -49 34 -24 52 27 20 40 17 77 -15z"/>
<path d="M2388 2983 c6 -2 18 -2 25 0 6 3 1 5 -13 5 -14 0 -19 -2 -12 -5z"/>
<path d="M2443 2973 c9 -2 23 -2 30 0 6 3 -1 5 -18 5 -16 0 -22 -2 -12 -5z"/>
<path d="M1825 2825 c-765 -222 -850 -247 -856 -253 -4 -4 -9 -19 -12 -33 -7
-28 4 -47 42 -72 21 -14 26 -14 47 -1 23 15 44 12 44 -6 0 -5 -11 -12 -25 -16
-30 -7 -31 -15 -5 -32 17 -10 20 -10 20 2 0 8 6 19 13 23 6 4 21 18 31 30 19
23 19 23 -8 44 -21 16 -25 24 -16 33 8 8 16 5 30 -12 16 -19 23 -21 40 -12 29
16 27 44 -4 36 -15 -4 -28 0 -35 8 -10 12 -6 16 20 21 27 6 35 3 55 -21 23
-26 26 -26 51 -13 20 11 22 15 10 17 -10 2 -17 12 -17 22 0 23 49 34 69 15 12
-12 19 -9 47 21 24 27 53 43 119 65 47 16 93 29 101 29 8 0 22 4 32 10 9 5 80
30 157 54 138 45 351 114 430 141 22 7 33 13 25 13 -8 1 -190 -50 -405 -113z
m-769 -306 c13 -14 15 -22 6 -31 -8 -8 -20 -3 -45 19 l-34 30 27 1 c16 0 36
-8 46 -19z m-56 -19 c0 -5 -4 -10 -10 -10 -5 0 -10 5 -10 10 0 6 5 10 10 10 6
0 10 -4 10 -10z"/>
<path d="M2375 2782 c-11 -2 -72 -20 -135 -39 -63 -19 -155 -46 -205 -60 -49
-13 -144 -42 -210 -63 -196 -63 -307 -97 -367 -115 -45 -13 -58 -21 -58 -36 0
-10 -1 -22 -2 -26 -1 -5 21 -24 49 -44 103 -72 202 -169 384 -375 27 -30 123
-116 174 -156 17 -12 36 -28 43 -35 38 -36 107 -55 197 -54 129 2 145 3 145
12 0 5 7 9 16 9 9 0 56 19 103 41 47 23 115 55 150 71 36 16 79 35 95 43 105
48 262 102 375 130 36 9 66 17 67 18 1 1 -1 18 -5 39 -5 32 -20 48 -116 124
-60 48 -122 94 -136 103 -14 9 -48 35 -75 59 -27 23 -110 89 -184 147 -74 57
-162 126 -195 153 -66 53 -80 60 -110 54z"/>
<path d="M1310 2550 c0 -6 7 -10 15 -10 8 0 15 2 15 4 0 2 -7 6 -15 10 -8 3
-15 1 -15 -4z"/>
<path d="M3055 2541 c11 -13 76 -69 145 -124 69 -56 134 -109 145 -118 171
-143 215 -182 210 -189 -3 -5 4 -14 15 -20 11 -6 20 -7 20 -2 0 5 14 7 30 4
17 -2 30 -2 30 2 0 5 -77 65 -415 320 -205 155 -204 154 -180 127z"/>
<path d="M1190 2490 c0 -5 9 -10 19 -10 11 0 23 5 26 10 4 6 -5 10 -19 10 -14
0 -26 -4 -26 -10z"/>
<path d="M1145 2460 c-7 -11 11 -40 24 -40 4 0 16 7 27 16 10 8 13 12 6 9 -7
-4 -22 1 -32 10 -12 11 -20 13 -25 5z"/>
<path d="M3085 2420 c3 -5 11 -10 16 -10 6 0 7 5 4 10 -3 6 -11 10 -16 10 -6
0 -7 -4 -4 -10z"/>
<path d="M1101 2406 c-10 -12 -8 -17 8 -25 26 -14 31 -14 31 3 0 24 -26 38
-39 22z"/>
<path d="M1206 2321 c-3 -4 3 -16 13 -25 24 -21 38 -4 15 18 -18 18 -21 19
-28 7z"/>
<path d="M3160 2299 c0 -12 25 -22 41 -17 6 2 0 9 -15 16 -16 7 -26 8 -26 1z"/>
<path d="M3235 2300 c3 -5 13 -10 21 -10 8 0 12 5 9 10 -3 6 -13 10 -21 10 -8
0 -12 -4 -9 -10z"/>
<path d="M1376 2261 c-3 -5 1 -14 9 -21 12 -10 15 -10 15 3 0 19 -16 31 -24
18z"/>
<path d="M1306 2242 c-7 -12 22 -38 31 -28 4 3 0 14 -9 22 -9 10 -18 12 -22 6z"/>
<path d="M1475 2170 c3 -5 11 -10 16 -10 6 0 7 5 4 10 -3 6 -11 10 -16 10 -6
0 -7 -4 -4 -10z"/>
<path d="M3330 2151 c0 -16 27 -31 44 -25 14 5 12 9 -10 20 -31 16 -34 17 -34
5z"/>
<path d="M3466 2132 c-3 -5 0 -17 7 -26 10 -14 18 -15 40 -7 31 12 36 24 9 19
-11 -2 -26 3 -35 10 -8 7 -18 9 -21 4z"/>
<path d="M823 2075 c0 -8 9 -15 20 -15 16 0 17 3 7 15 -7 8 -16 15 -20 15 -3
0 -7 -7 -7 -15z"/>
<path d="M1140 2056 c0 -2 8 -10 18 -17 15 -13 16 -12 3 4 -13 16 -21 21 -21
13z"/>
<path d="M3575 2053 c-29 -7 -38 -19 -29 -36 8 -12 14 -12 39 -1 17 7 24 13
16 14 -7 0 -11 6 -7 15 3 8 4 14 3 14 -1 -1 -11 -3 -22 -6z"/>
<path d="M3395 2030 c4 -6 11 -8 16 -5 14 9 11 15 -7 15 -8 0 -12 -5 -9 -10z"/>
<path d="M708 2013 c7 -3 16 -2 19 1 4 3 -2 6 -13 5 -11 0 -14 -3 -6 -6z"/>
<path d="M3451 2010 c-8 -4 -21 -6 -30 -3 -12 3 -11 0 3 -11 20 -16 56 -22 56
-8 -1 18 -16 30 -29 22z"/>
<path d="M658 1998 c6 -6 18 -8 28 -6 14 3 12 5 -9 10 -19 3 -25 2 -19 -4z"/>
<path d="M728 1983 c7 -3 16 -2 19 1 4 3 -2 6 -13 5 -11 0 -14 -3 -6 -6z"/>
<path d="M690 1971 c8 -5 38 -11 65 -14 31 -4 40 -3 25 2 -39 12 -107 21 -90
12z"/>
<path d="M3224 1965 c-19 -14 -18 -14 4 -15 13 0 22 6 22 15 0 19 -1 19 -26 0z"/>
<path d="M726 1940 c5 -5 32 -11 59 -14 50 -5 42 -1 -29 14 -21 5 -34 5 -30 0z"/>
<path d="M828 1943 c7 -3 16 -2 19 1 4 3 -2 6 -13 5 -11 0 -14 -3 -6 -6z"/>
<path d="M3077 1912 c3 -7 12 -11 20 -8 8 3 17 6 19 6 2 0 4 4 4 10 0 5 -11 9
-24 8 -15 -1 -22 -7 -19 -16z"/>
<path d="M848 1913 c6 -2 18 -2 25 0 6 3 1 5 -13 5 -14 0 -19 -2 -12 -5z"/>
<path d="M837 1840 c30 -27 35 -28 65 -18 55 18 52 25 -14 37 -87 15 -88 15
-51 -19z"/>
<path d="M2920 1862 c0 -5 7 -16 16 -23 14 -12 16 -11 13 5 -4 20 -29 35 -29
18z"/>
<path d="M2820 1827 c0 -7 9 -18 20 -25 16 -10 20 -10 20 1 0 14 -20 37 -32
37 -4 0 -8 -6 -8 -13z"/>
<path d="M911 1809 c-13 -5 -22 -12 -19 -15 3 -3 21 2 39 10 37 16 19 21 -20
5z"/>
<path d="M988 1813 c7 -3 16 -2 19 1 4 3 -2 6 -13 5 -11 0 -14 -3 -6 -6z"/>
<path d="M1126 1798 c3 -5 10 -6 15 -3 13 9 11 12 -6 12 -8 0 -12 -4 -9 -9z"/>
<path d="M1071 1789 c-13 -5 -39 -7 -57 -3 -44 8 -94 -4 -88 -21 3 -7 13 -16
21 -19 16 -6 140 30 158 46 12 11 -3 10 -34 -3z"/>
<path d="M2670 1787 c0 -8 9 -22 20 -32 19 -18 20 -17 20 1 0 11 -9 25 -20 32
-16 10 -20 10 -20 -1z"/>
<path d="M620 1779 c0 -7 65 -59 74 -59 2 0 4 13 4 29 -1 26 -5 30 -39 33 -22
2 -39 1 -39 -3z"/>
<path d="M1190 1764 c0 -8 5 -12 10 -9 6 4 8 11 5 16 -9 14 -15 11 -15 -7z"/>
<path d="M542 1761 c-8 -4 -13 -11 -13 -15 2 -16 0 -18 -14 -6 -8 7 -22 10
-30 6 -13 -5 -9 -12 17 -34 39 -34 65 -45 73 -31 4 5 12 6 18 2 7 -4 6 0 -2
10 -7 9 -21 17 -30 18 -11 0 -12 2 -3 6 7 3 19 0 27 -7 16 -13 59 -4 49 11 -3
5 -9 7 -14 4 -5 -3 -11 -1 -15 5 -3 5 -1 10 5 10 6 0 8 5 5 11 -4 6 -13 8 -21
5 -8 -3 -14 -1 -14 4 0 12 -20 13 -38 1z"/>
<path d="M730 1760 c0 -12 47 -40 68 -40 26 0 34 -11 21 -27 -9 -10 -7 -13 9
-13 11 0 22 7 26 15 3 8 13 15 22 15 14 0 14 2 3 16 -10 13 -10 17 2 25 10 7
2 8 -26 4 -23 -3 -60 -2 -83 3 -23 6 -42 6 -42 2z"/>
<path d="M1085 1751 c-16 -7 -15 -9 11 -14 36 -7 76 1 68 14 -6 11 -51 11 -79
0z"/>
<path d="M1065 1720 c-4 -6 9 -10 31 -10 42 0 42 4 2 14 -15 3 -30 2 -33 -4z"/>
<path d="M1222 1718 c6 -18 28 -21 28 -4 0 9 -7 16 -16 16 -9 0 -14 -5 -12
-12z"/>
<path d="M2520 1722 c0 -4 5 -13 12 -20 16 -16 28 -15 28 2 0 8 -7 17 -16 20
-21 8 -24 8 -24 -2z"/>
<path d="M1147 1703 c-25 -6 -11 -23 19 -23 15 0 24 5 22 12 -5 14 -17 17 -41
11z"/>
<path d="M2436 1703 c-8 -9 14 -33 30 -33 7 0 11 6 8 14 -6 16 -29 28 -38 19z"/>
<path d="M737 1693 c-9 -8 22 -43 38 -43 7 0 12 11 11 25 -1 18 -7 25 -22 25
-11 0 -24 -3 -27 -7z"/>
<path d="M901 1693 c-18 -7 -53 -43 -42 -43 5 0 18 -3 28 -6 15 -5 16 -4 3 6
-12 10 -11 11 9 6 25 -5 51 8 51 27 0 5 -9 2 -20 -8 -21 -19 -28 -7 -8 13 12
12 3 15 -21 5z"/>
<path d="M1025 1690 c-8 -13 35 -13 55 0 11 7 7 10 -17 10 -17 0 -35 -4 -38
-10z"/>
<path d="M630 1673 c0 -8 -13 -13 -32 -13 l-32 0 34 -35 c21 -21 41 -33 54
-31 27 4 33 26 7 26 -12 0 -21 5 -21 10 0 13 16 13 40 0 20 -11 50 -4 50 11 0
5 -6 9 -14 9 -7 0 -19 7 -26 15 -10 12 -16 13 -27 3 -11 -9 -16 -9 -24 3 -6
10 -9 10 -9 2z"/>
<path d="M960 1665 c0 -17 2 -18 24 -9 18 7 12 24 -10 24 -8 0 -14 -7 -14 -15z"/>
<path d="M1090 1670 c8 -5 26 -9 40 -9 23 0 23 1 5 9 -11 5 -29 9 -40 9 -17 1
-17 -1 -5 -9z"/>
<path d="M1070 1646 c0 -2 16 -6 35 -8 19 -2 35 0 35 4 0 4 -16 8 -35 8 -19 0
-35 -2 -35 -4z"/>
<path d="M1308 1643 c6 -2 18 -2 25 0 6 3 1 5 -13 5 -14 0 -19 -2 -12 -5z"/>
<path d="M985 1625 c-16 -7 -23 -14 -15 -14 8 0 26 6 40 14 32 18 14 18 -25 0z"/>
<path d="M929 1622 c9 -7 10 -11 2 -15 -7 -4 -8 -5 0 -3 15 2 13 20 -3 24 -10
3 -10 2 1 -6z"/>
<path d="M1099 1617 c5 -5 19 -7 32 -5 20 3 19 5 -9 9 -20 3 -29 2 -23 -4z"/>
<path d="M1275 1620 c-19 -7 -18 -8 5 -14 48 -12 93 -11 97 2 3 8 -6 12 -25
12 -17 0 -36 2 -44 4 -7 3 -22 1 -33 -4z"/>
<path d="M998 1606 c-15 -8 -35 -17 -45 -19 -16 -4 -15 -6 5 -12 12 -4 22 -11
22 -14 0 -4 7 -8 15 -8 8 0 12 4 9 8 -2 4 10 10 26 14 23 5 28 10 21 19 -6 7
-8 16 -4 19 12 12 -21 7 -49 -7z"/>
<path d="M853 1578 c1 -7 -4 -12 -10 -10 -7 1 -13 -5 -13 -13 0 -19 4 -19 42
1 24 12 28 18 17 25 -20 13 -39 11 -36 -3z"/>
<path d="M1205 1580 c-13 -5 -14 -9 -5 -9 8 0 24 4 35 9 13 5 14 9 5 9 -8 0
-24 -4 -35 -9z"/>
<path d="M1212 1557 c-25 -9 -30 -15 -21 -24 9 -9 23 -8 58 3 26 8 67 12 96 9
l50 -5 -50 15 c-59 17 -88 18 -133 2z"/>
<path d="M1085 1540 c-8 -13 5 -13 25 0 13 8 13 10 -2 10 -9 0 -20 -4 -23 -10z"/>
<path d="M1405 1530 c-11 -5 -42 -6 -70 -3 -56 5 -115 -11 -98 -28 28 -28 84
-28 164 0 43 15 76 31 72 34 -9 9 -43 8 -68 -3z"/>
<path d="M991 1523 c3 -20 -2 -24 -15 -14 -10 9 -15 8 -20 -4 -7 -18 20 -20
61 -4 26 10 27 12 8 19 -26 11 -35 12 -34 3z"/>
<path d="M1107 1523 c-15 -14 -6 -23 24 -23 27 0 29 2 15 15 -16 16 -29 19
-39 8z"/>
<path d="M1156 1491 c-14 -5 -16 -10 -8 -15 16 -9 54 3 47 15 -7 10 -13 10
-39 0z"/>
<path d="M1433 1449 c-51 -17 -93 -34 -93 -39 0 -9 79 -75 83 -69 1 2 7 13 13
23 6 11 37 29 71 40 34 12 65 24 69 28 6 7 -34 48 -46 47 -3 -1 -47 -14 -97
-30z"/>
<path d="M1070 1460 c0 -5 -7 -10 -15 -10 -9 0 -12 -6 -8 -16 4 -11 9 -12 16
-5 6 6 19 11 29 11 22 0 24 16 2 24 -21 8 -24 8 -24 -4z"/>
<path d="M1190 1450 c-13 -8 -12 -10 3 -10 9 0 17 5 17 10 0 12 -1 12 -20 0z"/>
<path d="M1130 1421 c0 -5 -13 -12 -30 -16 -35 -8 -37 -15 -10 -40 13 -11 25
-15 37 -10 17 8 17 8 1 12 -10 3 -18 8 -18 13 0 13 27 19 37 9 5 -5 17 -7 26
-3 15 5 14 9 -7 25 -27 21 -36 24 -36 10z"/>
<path d="M3460 1416 c0 -2 8 -10 18 -17 15 -13 16 -12 3 4 -13 16 -21 21 -21
13z"/>
<path d="M958 1379 c22 -23 35 -30 48 -25 11 4 14 10 8 14 -6 4 -13 15 -17 25
-4 11 -17 17 -37 17 l-31 0 29 -31z"/>
<path d="M1225 1400 c3 -5 16 -10 28 -10 18 0 19 2 7 10 -20 13 -43 13 -35 0z"/>
<path d="M3210 1394 c0 -8 5 -12 10 -9 6 4 8 11 5 16 -9 14 -15 11 -15 -7z"/>
<path d="M1512 1373 c-60 -21 -68 -56 -21 -95 l34 -29 9 35 c8 31 16 38 67 58
45 17 55 25 47 35 -8 10 -14 11 -25 2 -10 -9 -17 -9 -25 -1 -15 15 -33 14 -86
-5z"/>
<path d="M1297 1371 c-17 -6 -17 -8 3 -26 12 -11 26 -30 31 -41 6 -17 16 -22
44 -22 42 0 42 16 2 36 -15 7 -27 19 -27 27 0 19 -31 34 -53 26z"/>
<path d="M3510 1376 c0 -2 8 -10 18 -17 15 -13 16 -12 3 4 -13 16 -21 21 -21
13z"/>
<path d="M1186 1335 c4 -10 0 -15 -12 -15 -13 0 -15 -3 -7 -11 8 -8 19 -6 39
5 20 10 24 15 12 16 -10 0 -18 5 -18 10 0 6 -4 10 -10 10 -5 0 -7 -7 -4 -15z"/>
<path d="M1620 1316 c-27 -10 -38 -21 -49 -53 l-15 -41 39 -33 c21 -19 51 -42
67 -52 l28 -17 7 31 c4 24 10 29 24 26 11 -3 19 -1 19 3 0 5 17 14 38 20 20 7
41 16 45 20 14 13 -64 70 -88 64 -14 -3 -28 3 -45 20 -27 29 -23 29 -70 12z"/>
<path d="M1227 1294 c5 -13 2 -15 -18 -9 -22 7 -23 6 -10 -9 9 -10 23 -15 34
-12 10 2 25 2 33 -1 21 -8 5 -25 -17 -18 -10 4 -19 2 -19 -4 0 -5 19 -11 42
-13 24 -2 43 -9 46 -17 3 -10 -1 -12 -17 -8 -11 3 -24 1 -27 -4 -3 -5 18 -9
45 -9 40 0 51 -3 51 -16 0 -11 -6 -15 -20 -11 -21 5 -19 -2 9 -35 9 -10 22
-18 31 -18 8 0 21 -9 28 -20 7 -11 21 -20 32 -20 11 0 34 -14 52 -31 29 -29
32 -30 38 -13 6 14 2 20 -14 24 -11 3 -21 12 -22 20 -3 39 -5 41 -36 38 -26
-2 -33 1 -32 15 1 9 -2 17 -6 17 -5 0 -12 9 -15 20 -3 11 -12 20 -18 20 -7 0
-18 9 -25 20 -7 11 -17 20 -22 20 -5 0 -22 13 -37 28 -27 26 -76 62 -87 62 -3
0 -3 -7 1 -16z m173 -154 c0 -5 -4 -10 -9 -10 -6 0 -13 5 -16 10 -3 6 1 10 9
10 9 0 16 -4 16 -10z"/>
<path d="M3315 1240 c-4 -23 -5 -43 -2 -46 2 -3 7 14 11 37 4 23 5 44 2 46 -2
2 -7 -14 -11 -37z"/>
<path d="M1426 1254 c-9 -9 -15 -21 -13 -28 6 -19 57 -39 79 -29 18 8 17 10
-15 41 -32 31 -35 32 -51 16z"/>
<path d="M3242 1220 c0 -14 2 -19 5 -12 2 6 2 18 0 25 -3 6 -5 1 -5 -13z"/>
<path d="M1513 1182 c-26 -4 -30 -24 -9 -41 14 -12 66 -5 66 9 0 15 -36 36
-57 32z"/>
<path d="M1174 1096 c0 -29 1 -32 14 -19 13 12 17 12 31 -2 25 -22 31 -19 31
14 0 24 -4 28 -19 24 -10 -3 -22 0 -25 6 -14 22 -31 10 -32 -23z"/>
<path d="M1578 1113 c-25 -6 -22 -16 13 -42 27 -20 35 -22 57 -11 l26 11 -30
24 c-29 25 -35 26 -66 18z"/>
<path d="M1340 1070 c0 -5 5 -10 11 -10 5 0 7 5 4 10 -3 6 -8 10 -11 10 -2 0
-4 -4 -4 -10z"/>
<path d="M1425 1000 c3 -5 8 -10 11 -10 2 0 4 5 4 10 0 6 -5 10 -11 10 -5 0
-7 -4 -4 -10z"/>
<path d="M1447 952 c-9 -10 -17 -22 -17 -25 0 -12 79 0 102 16 30 20 15 34
-22 20 -17 -6 -32 -7 -37 -2 -6 6 -16 2 -26 -9z"/>
<path d="M369 1932 c-1 -4 -1 -10 -1 -13 1 -4 -6 -5 -16 -3 -22 5 -47 -11 -38
-25 10 -15 34 -14 90 5 35 12 44 19 36 29 -10 13 -69 19 -71 7z"/>
<path d="M688 1423 c-16 -4 -16 -5 0 -24 28 -33 68 -51 80 -36 8 10 2 20 -23
40 -19 15 -35 26 -37 26 -2 -1 -11 -3 -20 -6z"/>
</g>
</svg>
